<svg width="169" height="37" viewBox="0 0 169 37" fill="none" xmlns="http://www.w3.org/2000/svg">
<path d="M0 35V32.31H32V35H0ZM0 24.76V22.07H32V24.76H0ZM0 14.69V12H32V14.69H0Z" fill="#E8E8E8"/>
<path d="M79.5 27.937C84 27.937 87.656 23.464 87.656 17.968C87.656 12.472 84 8 79.5 8C78.3631 8.02174 77.2463 8.3034 76.2351 8.8234C75.2239 9.34339 74.3451 10.0879 73.666 11C72.1266 12.9957 71.3082 15.4538 71.344 17.974C71.344 23.465 75 27.937 79.5 27.937ZM79.5 9.813C83 9.813 85.844 13.472 85.844 17.969C85.844 22.466 82.998 26.125 79.5 26.125C76.002 26.125 73.156 22.465 73.155 17.969C73.154 13.473 76 9.813 79.5 9.813ZM85.844 26.125C85.6036 26.125 85.373 26.2205 85.203 26.3905C85.033 26.5605 84.9375 26.7911 84.9375 27.0315C84.9375 27.2719 85.033 27.5025 85.203 27.6725C85.373 27.8425 85.6036 27.938 85.844 27.938C87.526 27.9399 89.1386 28.6088 90.3279 29.7982C91.5172 30.9875 92.1861 32.6 92.188 34.282C92.1875 34.5221 92.0918 34.7523 91.922 34.9221C91.7522 35.0918 91.5221 35.1875 91.282 35.188H67.72C67.4798 35.1875 67.2497 35.0918 67.08 34.9221C66.9102 34.7523 66.8145 34.5221 66.814 34.282C66.8161 32.6001 67.4852 30.9877 68.6744 29.7985C69.8637 28.6092 71.4761 27.9401 73.158 27.938C73.3982 27.938 73.6287 27.8425 73.7986 27.6726C73.9685 27.5027 74.064 27.2723 74.064 27.032C74.064 26.7917 73.9685 26.5613 73.7986 26.3914C73.6287 26.2215 73.3982 26.126 73.158 26.126C70.9954 26.1279 68.922 26.9875 67.3926 28.5164C65.8631 30.0453 65.0026 32.1185 65 34.281C65.0008 35.0019 65.2875 35.693 65.7972 36.2027C66.307 36.7125 66.9981 36.9992 67.719 37H91.282C92.0027 36.9989 92.6936 36.7121 93.2031 36.2024C93.7126 35.6927 93.9992 35.0017 94 34.281C93.9974 32.1187 93.1372 30.0457 91.6083 28.5168C90.0793 26.9878 88.0063 26.1276 85.844 26.125Z" fill="#E8E8E8"/>
<path d="M153.201 37C152.553 36.9738 151.942 36.6948 151.497 36.2227C151.053 35.7506 150.811 35.1232 150.824 34.475C150.838 33.8269 151.104 33.2097 151.567 32.7559C152.03 32.3022 152.653 32.048 153.301 32.048C153.949 32.048 154.572 32.3022 155.035 32.7559C155.498 33.2097 155.764 33.8269 155.777 34.475C155.791 35.1232 155.549 35.7506 155.105 36.2227C154.66 36.6948 154.049 36.9738 153.401 37H153.201ZM133.753 34.32C133.753 33.79 133.91 33.2718 134.205 32.8311C134.499 32.3904 134.918 32.0469 135.407 31.844C135.897 31.6412 136.436 31.5881 136.956 31.6915C137.476 31.7949 137.953 32.0502 138.328 32.425C138.703 32.7998 138.958 33.2773 139.062 33.7972C139.165 34.317 139.112 34.8559 138.909 35.3456C138.706 35.8353 138.363 36.2539 137.922 36.5483C137.481 36.8428 136.963 37 136.433 37C136.081 37.0003 135.732 36.9311 135.407 36.7966C135.081 36.662 134.786 36.4646 134.537 36.2158C134.288 35.9669 134.09 35.6713 133.955 35.3461C133.82 35.0208 133.751 34.6721 133.751 34.32H133.753ZM137.553 28.686C137.294 28.6868 137.041 28.6024 136.834 28.4457C136.627 28.2891 136.478 28.0689 136.408 27.819L131.575 10.364H128.182C127.869 10.364 127.568 10.2395 127.346 10.0178C127.125 9.79614 127 9.49549 127 9.18201C127 8.86852 127.125 8.56787 127.346 8.3462C127.568 8.12454 127.869 8.00001 128.182 8.00001H132.463C132.723 7.99919 132.975 8.08372 133.182 8.24057C133.388 8.39742 133.538 8.61788 133.607 8.86801L138.44 26.323H151.618L156.001 16.275H141.401C141.243 16.2796 141.085 16.2524 140.938 16.1951C140.79 16.1377 140.656 16.0513 140.542 15.9411C140.429 15.8308 140.339 15.6989 140.277 15.5532C140.215 15.4074 140.184 15.2508 140.184 15.0925C140.184 14.9343 140.215 14.7776 140.277 14.6319C140.339 14.4861 140.429 14.3542 140.542 14.2439C140.656 14.1337 140.79 14.0473 140.938 13.9899C141.085 13.9326 141.243 13.9054 141.401 13.91H157.814C158.01 13.91 158.202 13.9587 158.374 14.0517C158.547 14.1448 158.693 14.2793 158.8 14.443C158.908 14.6073 158.973 14.7957 158.991 14.9914C159.008 15.1872 158.977 15.3842 158.9 15.565L153.495 27.977C153.403 28.1876 153.251 28.3668 153.058 28.4927C152.866 28.6186 152.641 28.6858 152.411 28.686H137.553Z" fill="#E8E8E8"/>
<path d="M158.502 19C163.749 19 168.002 14.7467 168.002 9.5C168.002 4.25329 163.749 0 158.502 0C153.255 0 149.002 4.25329 149.002 9.5C149.002 14.7467 153.255 19 158.502 19Z" fill="#F16D7F"/>
<path d="M157.815 7.648C158.263 7.552 158.675 7.504 159.051 7.504C159.499 7.504 159.895 7.57 160.239 7.702C160.583 7.834 160.869 8.016 161.097 8.248C161.329 8.48 161.503 8.754 161.619 9.07C161.739 9.386 161.799 9.73 161.799 10.102C161.799 10.558 161.719 10.97 161.559 11.338C161.403 11.706 161.185 12.022 160.905 12.286C160.629 12.546 160.303 12.746 159.927 12.886C159.551 13.026 159.145 13.096 158.709 13.096C158.457 13.096 158.215 13.07 157.983 13.018C157.751 12.97 157.533 12.904 157.329 12.82C157.129 12.736 156.943 12.64 156.771 12.532C156.599 12.424 156.447 12.31 156.315 12.19L156.645 11.734C156.717 11.63 156.811 11.578 156.927 11.578C157.007 11.578 157.097 11.61 157.197 11.674C157.297 11.734 157.419 11.802 157.563 11.878C157.707 11.954 157.875 12.024 158.067 12.088C158.263 12.148 158.495 12.178 158.763 12.178C159.063 12.178 159.333 12.13 159.573 12.034C159.813 11.938 160.019 11.802 160.191 11.626C160.363 11.446 160.495 11.232 160.587 10.984C160.679 10.736 160.725 10.458 160.725 10.15C160.725 9.882 160.685 9.64 160.605 9.424C160.529 9.208 160.411 9.024 160.251 8.872C160.095 8.72 159.899 8.602 159.663 8.518C159.427 8.434 159.151 8.392 158.835 8.392C158.619 8.392 158.393 8.41 158.157 8.446C157.925 8.482 157.687 8.54 157.443 8.62L156.771 8.422L157.461 4.402H161.535V4.87C161.535 5.022 161.487 5.148 161.391 5.248C161.299 5.344 161.139 5.392 160.911 5.392H158.211L157.815 7.648Z" fill="white"/>
</svg>
